<svg width="11" height="11" viewBox="0 0 11 11" fill="none" xmlns="http://www.w3.org/2000/svg">
<g id="speed">
<g id="Vector">
<path d="M8.98507 4.06291L8.47257 4.83374C8.71972 5.32669 8.84072 5.87325 8.82473 6.42446C8.80873 6.97567 8.65623 7.51429 8.3809 7.99207H2.6059C2.24805 7.37129 2.09977 6.65171 2.18304 5.94002C2.26631 5.22833 2.57669 4.56242 3.06818 4.041C3.55967 3.51959 4.20609 3.17043 4.91162 3.04528C5.61715 2.92014 6.34423 3.02567 6.98507 3.34624L7.7559 2.83374C6.9711 2.3305 6.0402 2.10499 5.1121 2.1933C4.184 2.2816 3.31233 2.67862 2.63652 3.32083C1.96071 3.96304 1.5198 4.81335 1.38432 5.73575C1.24885 6.65814 1.42663 7.59932 1.88923 8.40874C1.96194 8.53469 2.06635 8.63942 2.19208 8.71251C2.3178 8.78561 2.46047 8.82453 2.6059 8.82541H8.37673C8.52357 8.82599 8.66796 8.78776 8.79528 8.71459C8.92259 8.64142 9.02831 8.53591 9.10173 8.40874C9.48564 7.74371 9.6783 6.98552 9.65845 6.21789C9.6386 5.45026 9.407 4.70304 8.98923 4.05874L8.98507 4.06291Z" fill="#528AFF"/>
<path d="M4.9059 6.91291C4.98329 6.99039 5.0752 7.05185 5.17637 7.09379C5.27753 7.13573 5.38597 7.15731 5.49548 7.15731C5.605 7.15731 5.71343 7.13573 5.8146 7.09379C5.91576 7.05185 6.00767 6.99039 6.08507 6.91291L8.4434 3.37541L4.9059 5.73374C4.82842 5.81114 4.76695 5.90304 4.72502 6.00421C4.68308 6.10537 4.66149 6.21381 4.66149 6.32333C4.66149 6.43284 4.68308 6.54128 4.72502 6.64244C4.76695 6.74361 4.82842 6.83551 4.9059 6.91291Z" fill="#528AFF"/>
</g>
</g>
</svg>
