<svg width="8" height="8" viewBox="0 0 8 8" fill="none" xmlns="http://www.w3.org/2000/svg">
<g id="Interface / Star" clip-path="url(#clip0_691_1751)">
<path id="Vector" d="M1.18103 3.51489C1.08967 3.4304 1.1393 3.27766 1.26287 3.263L3.01392 3.05531C3.06428 3.04934 3.10803 3.01771 3.12927 2.97166L3.86784 1.37047C3.91996 1.25747 4.08061 1.25744 4.13273 1.37045L4.8713 2.97162C4.89254 3.01768 4.936 3.04939 4.98637 3.05536L6.73751 3.263C6.86109 3.27766 6.91058 3.43045 6.81921 3.51494L5.52477 4.71222C5.48753 4.74666 5.47095 4.79791 5.48084 4.84766L5.82438 6.57715C5.84863 6.69921 5.71873 6.79378 5.61014 6.733L4.0715 5.87151C4.02724 5.84674 3.97348 5.84685 3.92922 5.87163L2.39042 6.73278C2.28183 6.79356 2.15169 6.69921 2.17594 6.57715L2.51954 4.84777C2.52943 4.79802 2.51289 4.74665 2.47565 4.71221L1.18103 3.51489Z" stroke="#53BE00" stroke-width="0.7" stroke-linecap="round" stroke-linejoin="round"/>
</g>
<defs>
<clipPath id="clip0_691_1751">
<rect width="7" height="7" fill="white" transform="translate(0.5 0.5)"/>
</clipPath>
</defs>
</svg>
